<svg width="284" height="93" viewBox="0 0 284 93" fill="none" xmlns="http://www.w3.org/2000/svg">
<g clip-path="url(#clip0_4134_29170)">
<path d="M33.4189 74.587C36.3682 74.5428 39.1735 74.5281 41.9747 74.512C43.1391 74.5053 44.0356 74.958 44.0491 76.1993C44.0975 81.2115 44.0693 86.2224 44.0693 91.3819C41.7499 91.6591 39.6096 91.169 37.5393 90.6722C17.7799 85.9238 5.09565 73.793 0.994084 53.9677C-4.11571 29.248 11.5179 5.44297 36.3776 0.81908C55.8961 -2.8112 75.0322 5.81389 84.7739 22.961C89.5607 31.3865 91.3146 40.5098 90.2526 50.1767C89.177 59.9708 85.4551 68.5437 78.6707 75.7574C78.1054 76.3573 78.0717 77.0362 78.0717 77.7701C78.0758 81.565 78.0852 85.356 78.0677 89.151C78.0569 91.1262 77.4229 91.7703 75.463 91.7944C73.219 91.8212 70.9764 91.8319 68.7325 91.7904C66.9826 91.7596 66.3997 91.1797 66.3997 89.463C66.393 74.6232 66.4105 59.7834 66.3862 44.9422C66.3822 43.358 67.1172 42.7072 68.6221 42.7072C70.8661 42.7113 73.1087 42.6939 75.3526 42.7032C77.4135 42.7139 78.0609 43.3406 78.065 45.4042C78.0825 51.7086 78.069 58.0131 78.0852 64.3175C78.0852 64.9 77.8752 65.5441 78.3611 66.0758C85.6085 55.7955 87.6034 38.0445 78.0919 23.4993C68.7675 9.23126 49.7417 2.54651 32.9626 7.87074C16.026 13.2459 4.92604 29.5051 6.10388 47.7021C7.25479 65.4865 19.6847 78.4757 32.1872 82.6176V77.1059C32.1872 76.1216 32.3905 75.2271 33.4108 74.5857" fill="#7763EA"/>
<path d="M53.4518 23.3042C56.3433 25.1896 57.9115 27.7875 58.493 31.0174C58.8335 32.9095 58.3718 33.4518 56.4321 33.4853C55.8156 33.496 55.191 33.4264 54.5852 33.4987C52.6415 33.729 51.5108 33.1626 50.6668 31.1432C49.0299 27.2184 42.6238 26.0828 39.3811 28.8949C37.0685 30.8968 37.1546 34.2084 39.5951 36.1729C41.3423 37.5789 43.4893 38.0891 45.5879 38.689C48.0069 39.3813 50.4473 39.9853 52.8003 40.9039C57.404 42.6996 59.73 46.1518 59.8337 50.9243C59.9373 55.7477 57.8253 59.5253 53.4895 61.9183C51.9591 62.743 50.2945 63.2929 48.5722 63.5426C47.4832 63.714 47.0969 64.2389 47.1009 65.3383C47.1211 69.5859 47.8278 69.3797 42.8688 69.3529C40.68 69.3395 40.505 69.1574 40.4983 66.9425C40.4983 66.6064 40.4539 66.2676 40.505 65.9409C40.777 64.2309 40.0056 63.4797 38.3378 63.0779C33.3303 61.8741 30.0714 58.8303 28.9272 53.7257C28.5517 52.0532 28.759 51.7854 30.5197 51.7505C31.081 51.7398 31.6464 51.7987 32.201 51.7398C34.5539 51.4934 36.1814 51.9246 37.5557 54.3792C39.6503 58.1233 46.7429 58.8116 50.0408 56.0664C52.9147 53.6735 52.3251 49.1072 48.8899 47.3931C46.7738 46.3379 44.4451 45.9094 42.1836 45.2707C39.758 44.5851 37.3484 43.8445 35.2095 42.4532C31.112 39.7898 29.5343 35.9091 30.1307 31.2303C30.7445 26.4243 33.4865 23.0993 38.2248 21.7923C40.0514 21.2888 40.6302 20.5242 40.5306 18.7138C40.3852 16.0463 40.4929 16.0436 43.2147 15.82C43.3826 15.8039 43.5504 15.7892 43.7182 15.7758C47.0538 15.5736 47.2234 15.6312 47.074 18.9093C46.9946 20.6782 47.6353 21.408 49.3099 21.6517C50.7569 21.8647 52.0977 22.4646 53.4491 23.3109" fill="#7763EA"/>
<path d="M256.977 43.6247H255.468C252.952 43.6247 252.952 43.6247 252.152 41.5946C251.842 41.5089 251.608 41.6629 251.397 41.845C245.618 46.9081 234.153 44.7321 231.724 33.8439C230.59 28.7527 231.211 23.9132 234.725 19.6683C238.816 14.7324 247.635 14.8208 251.562 18.6774C251.759 18.8689 251.973 19.0443 252.327 19.363C252.672 17.5807 252.468 15.9349 252.495 14.3106C252.532 12.0779 252.533 9.84739 252.499 7.61914C252.486 6.63491 252.844 6.18899 253.867 6.22381C255.266 6.268 256.672 6.2921 258.071 6.21041C259.37 6.13543 259.708 6.73803 259.697 7.90705C259.662 11.9792 259.686 16.0487 259.686 20.1209C259.689 27.0913 259.689 34.0631 259.686 41.0362C259.686 43.6073 259.675 43.6073 256.974 43.6207M248.6 37.3644C251.908 35.3665 253.014 32.4044 252.536 28.6817C252.109 25.3742 249.459 22.4764 246.478 22.1952C242.628 21.835 239.982 23.5557 238.811 27.2275C237.715 30.6556 238.367 33.7542 240.889 36.3253C243.036 38.516 245.669 38.441 248.601 37.3644M139.881 49.1819L139.86 18.7229C139.86 16.3607 139.865 16.3607 142.304 16.3607L144.155 16.3567C146.798 16.35 146.798 16.35 147.276 19.0202C148.827 17.8404 150.357 16.7504 152.231 16.2951C159.406 14.5543 166.249 19.2706 167.586 26.8499C168.406 31.5086 167.752 35.8753 164.86 39.7011C160.918 44.9223 153.155 45.6869 148.143 41.4594C147.895 41.2505 147.699 40.9492 147.058 40.9826V49.2475C147.058 53.6732 147.062 53.6732 142.675 53.6665C142.227 53.6665 141.776 53.6317 141.332 53.6706C140.232 53.7603 139.812 53.2594 139.871 52.1895C139.922 51.2428 139.878 50.2934 139.878 49.1792M148.731 24.3431C146.77 26.9101 146.26 29.753 147.115 32.8517C148.473 37.7782 154.168 39.9274 157.983 36.9105C159.792 35.4803 160.502 33.4382 160.888 31.2541C161.418 28.2546 159.651 24.3297 157.101 22.8861C154.592 21.464 151.495 21.9501 148.731 24.3431ZM132.96 25.9366C134.781 27.8436 135.802 30.3704 135.813 33.0007C135.824 35.6309 134.825 38.1661 133.02 40.0881C128.233 45.1137 118.288 45.6721 112.96 41.2505C110.59 39.286 109.421 36.7257 108.915 33.777C108.767 32.9066 109.122 32.4848 109.962 32.4741C111.53 32.4566 113.099 32.4874 114.67 32.4807C115.676 32.4767 115.896 33.1972 116.227 33.9444C117.968 37.9068 123.009 39.3329 126.561 36.9024C129.539 34.8657 129.353 31.2876 126.161 29.6593C124.156 28.6349 121.947 28.1849 119.806 27.5408C118.31 27.0763 116.856 26.4859 115.461 25.7759C108.066 22.1389 108.755 12.0288 114.717 8.36769C119.855 5.21011 125.271 5.27841 130.537 8.0423C133.493 9.59565 134.958 12.3381 135.324 15.6631C135.441 16.7424 135.163 17.2499 134.008 17.1682C133.28 17.1147 132.55 17.1147 131.823 17.1682C129.952 17.2981 128.501 17.2405 127.756 14.8784C127.071 12.6916 123.562 11.7489 120.885 12.5028C118.669 13.1268 117.352 14.8677 117.428 17.0383C117.483 18.601 118.355 19.6094 119.641 20.3459C121.36 21.3301 123.286 21.7372 125.158 22.2996C127.891 23.1218 130.652 23.9079 132.954 25.9339M219.422 63.916V76.6681C220.632 75.9999 221.162 75.005 221.851 74.1962C223.988 71.6867 226.077 69.1398 228.175 66.5995C228.537 66.1603 228.892 65.646 229.485 65.6394C231.922 65.6019 234.354 65.6219 237.298 65.6219L232.832 70.8257C231.632 72.2237 230.519 73.7128 229.213 75.001C228.034 76.1633 228.252 77.1127 229.061 78.35C231.718 82.4155 234.289 86.5332 236.883 90.6362C237.173 91.0955 237.614 91.4999 237.531 92.4011C235.088 92.4011 232.613 92.4493 230.142 92.3663C229.512 92.3462 229.254 91.5776 228.925 91.0674C227.184 88.341 225.446 85.611 223.712 82.8775C223.504 82.5521 223.374 82.1678 222.877 82.0004C220.61 83.8925 219.035 85.9534 219.341 89.3092C219.661 92.8578 219.827 92.4493 216.332 92.4734C212.46 92.4975 212.46 92.4801 212.46 88.5579C212.46 78.0782 212.491 67.5985 212.422 57.1187C212.411 55.4904 212.915 54.9079 214.525 55.0686C215.634 55.1784 216.769 55.1543 217.884 55.0726C219.039 54.9869 219.486 55.3645 219.449 56.5603C219.373 58.9559 219.428 61.3529 219.428 63.9173M171.225 33.5975C170.77 30.3409 170.807 27.2489 171.918 24.2493C174.03 18.5421 178.854 15.6109 185.578 15.9403C191.074 16.2081 195.406 19.9267 196.857 25.5496C197.239 27.0333 197.129 28.5318 197.237 30.0235C197.34 31.4804 196.826 31.9679 195.335 31.9438C190.238 31.8648 185.138 31.9063 180.042 31.917C179.328 31.917 178.59 31.8112 177.771 32.2049C178.14 34.8027 179.222 36.9292 181.765 37.8786C184.415 38.8655 187.179 38.8937 189.277 36.7444C190.415 35.5794 191.535 35.2982 192.975 35.4C194.305 35.4924 195.656 35.246 197.037 35.6223C197.254 36.9801 196.496 37.9911 195.835 38.978C194.336 41.2063 192.138 42.5293 189.612 43.2765C186.328 44.25 183.003 44.3705 179.705 43.2939C175.015 41.7647 172.341 38.4437 171.227 33.6029M189.878 25.1224C189.453 24.5359 189.102 23.8784 188.592 23.3776C186.693 21.5122 184.402 21.0596 181.927 21.9273C179.55 22.7643 178.389 24.635 177.892 26.9356C178.46 27.4431 178.988 27.2984 179.473 27.3025C182.501 27.3185 185.529 27.3199 188.557 27.3065C190.397 27.2998 190.459 27.1967 189.88 25.1224M160.46 92.4681C155.028 90.8572 153.517 84.6866 156.101 80.751C157.769 78.2148 160.468 77.4194 163.256 76.8596C165.633 76.3829 168.053 76.4686 170.455 76.5208C171.709 76.5476 172.112 76.0789 172.102 74.855C172.075 72.2799 171.009 70.823 168.698 70.44C165.758 69.9526 163.584 70.9649 162.846 73.295C162.522 74.3127 162.012 74.7452 160.934 74.6729C159.815 74.6101 158.693 74.6079 157.574 74.6662C156.255 74.7144 155.765 74.3234 156.147 72.8865C157.45 67.9506 160.768 65.1693 165.986 64.8239C168.11 64.6651 170.247 64.8999 172.285 65.5162C176.456 66.791 178.936 69.9111 179.009 74.2752C179.099 79.8458 179.016 85.4204 179.047 90.9911C179.054 92.0396 178.713 92.5471 177.6 92.4828C176.652 92.4279 175.698 92.4761 174.743 92.4761C172.249 92.4761 172.249 92.4721 171.98 89.8127C168.713 93.1684 164.767 93.3398 160.463 92.4694M164.077 87.646C168.302 88.657 171.568 86.6069 172.047 82.6579C172.175 81.5879 171.912 80.9197 170.662 80.9706C168.935 81.0429 167.202 80.9947 165.482 81.142C163.649 81.296 162.299 82.5266 161.97 84.2166C161.661 85.8181 162.425 86.8733 164.075 87.6447M255.99 65.8014C261.855 68.2425 264.543 73.4248 263.692 80.6934C257.503 81.0095 251.256 80.5461 245.039 80.9572C245.028 82.1877 245.372 83.3954 246.031 84.4366C246.69 85.4777 247.637 86.3083 248.757 86.8292C251.048 87.8509 254.485 87.4157 256.131 85.6494C256.997 84.7201 257.841 84.4054 259.047 84.5045C260.439 84.617 261.835 84.2126 263.233 84.4563C263.385 84.4831 263.519 84.6036 263.829 84.7683C263.206 87.4559 261.59 89.3855 259.294 90.8331C252.937 94.8436 241.134 93.696 238.608 83.3569C237.033 76.9051 239.207 69.5723 244.627 66.6517C248.242 64.7047 252.005 64.7006 255.986 65.7987M253.105 76.1954C254.37 76.1164 255.663 76.3802 256.902 75.9892C256.799 72.774 254.291 70.6315 250.81 70.7199C247.781 70.7989 245.224 73.2159 245.255 76.1941L253.105 76.1954ZM219.897 34.1198C219.886 31.7791 219.914 29.6044 219.855 27.431C219.769 24.2185 217.712 22.2072 214.573 22.1831C211.326 22.163 209.07 24.1476 209.004 27.3319C208.914 32.1249 208.905 36.9191 208.977 41.7124C208.995 43.1346 208.613 43.7733 207.086 43.6421C205.749 43.5296 204.398 43.5979 203.054 43.622C202.138 43.6394 201.742 43.2484 201.745 42.3258C201.761 34.1876 201.761 26.0495 201.745 17.9114C201.741 16.8696 202.227 16.5536 203.185 16.5844C204.305 16.6219 205.432 16.6567 206.545 16.5737C208.047 16.4612 209.288 16.5696 208.992 18.9318C210.843 17.3691 212.624 16.3915 214.705 16.0996C220.278 15.3283 226.294 18.1083 226.742 25.1666C227.113 31.0533 226.814 36.9801 226.808 42.8868C226.808 43.0448 226.728 43.2029 226.625 43.5899C224.729 43.5899 222.792 43.6073 220.857 43.5832C219.882 43.5698 219.905 42.8252 219.905 42.1436L219.897 34.1198ZM126.541 68.6028C126.541 76.0173 126.503 83.2645 126.568 90.5117C126.581 92.0168 126.168 92.6609 124.59 92.5002C123.473 92.393 122.348 92.393 121.23 92.5002C119.614 92.6609 119.26 91.9351 119.267 90.4635C119.318 82.0446 119.287 73.6284 119.284 65.2082C119.284 62.3693 119.288 62.3693 116.516 62.3693C114.5 62.3693 112.481 62.3251 110.466 62.3867C109.28 62.4215 108.683 62.0787 108.784 60.7851C108.865 59.6148 108.867 58.4449 108.791 57.2754C108.716 56.0715 109.264 55.7502 110.384 55.7528C118.79 55.7823 127.195 55.7809 135.601 55.7488C136.803 55.7448 137.28 56.1184 137.311 57.3705C137.442 62.3653 137.477 62.3653 132.487 62.368C130.974 62.368 129.461 62.3947 127.948 62.3613C126.958 62.3412 126.51 62.7389 126.534 63.7459C126.569 65.3059 126.541 66.8686 126.541 68.5961M184.524 71.9036C188.562 64.7315 197.756 63.2437 203.808 67.5288C205.942 69.0407 207.309 71.0868 208.109 73.5521C208.436 74.5671 208.171 75.0465 207.075 75.0331C206.234 75.0224 205.387 74.9742 204.553 75.0465C202.902 75.1911 201.785 74.8577 200.742 73.236C198.595 69.8937 193.315 70.1401 191.228 73.6029C189.149 77.0484 189.074 80.7711 191.014 84.2782C193.377 88.5499 198.76 88.5258 201.239 84.3264C201.749 83.4627 202.299 83.1748 203.234 83.1989C204.961 83.2431 206.69 83.2123 208.692 83.2123C208.144 85.9038 206.896 87.9674 205.047 89.5917C201.073 93.0787 196.425 93.6786 191.521 92.1039C186.9 90.6201 184.284 87.1988 183.23 82.5909C182.365 78.9917 182.826 75.2031 184.529 71.913" fill="#393B3C"/>
<path d="M56.4152 91.8065C54.7366 91.8065 53.2276 91.7957 51.7187 91.8065C50.2272 91.8172 49.324 91.0834 49.3172 89.6197C49.2728 82.7743 49.2822 75.9248 49.2997 69.078C49.3038 67.7416 50.0926 66.977 51.3916 66.9489C54.0758 66.8847 56.7612 66.8883 59.4453 66.9596C60.5895 66.9904 61.2652 67.6626 61.2612 68.9133C61.2495 75.8722 61.2473 82.8301 61.2544 89.7871C61.2544 91.1142 60.4925 91.6993 59.2689 91.7783C58.3765 91.8332 57.48 91.7984 56.4192 91.8051" fill="#7763EA"/>
<path d="M136.75 66.6523C136.745 65.648 137.301 65.494 137.987 65.494L140.847 65.4873C143.383 65.4806 143.383 65.4806 143.911 67.986C146.513 65.6721 149.486 64.7361 153.056 65.2677C153.208 67.0232 153.101 68.7855 152.959 70.5437C152.9 71.2708 152.374 71.3632 151.764 71.4208C150.765 71.5199 149.756 71.627 148.78 71.8627C145.492 72.6608 143.776 75.2707 143.721 79.5866C143.654 83.2671 143.66 86.9485 143.738 90.6288C143.78 92.1406 143.239 92.62 141.799 92.5008C140.681 92.4091 139.557 92.4077 138.439 92.4968C137.081 92.6026 136.72 92.0134 136.727 90.7413C136.768 82.767 136.751 74.79 136.758 66.655M278.931 72.3019C275.843 73.7174 275.065 76.3567 274.979 79.2478C274.875 83.0385 274.875 86.8314 274.979 90.6221C275.017 92.1272 274.476 92.62 273.033 92.4968C271.97 92.4139 270.903 92.4125 269.841 92.4928C268.504 92.5919 267.952 92.1567 267.963 90.7239C268.018 82.8634 268.008 74.9989 267.97 67.1384C267.963 65.9279 268.335 65.3654 269.6 65.486C270.265 65.5476 270.943 65.4926 271.617 65.4926C274.27 65.486 274.27 65.486 274.915 68.0195C276.43 66.9402 277.826 65.7953 279.688 65.3936C283.836 64.495 284.333 64.8793 283.834 69.0372C283.748 69.747 283.696 70.4634 283.626 71.1932C282.12 71.7663 280.474 71.54 278.937 72.3073" fill="#393B3C"/>
</g>
<defs>
<clipPath id="clip0_4134_29170">
<rect width="284" height="93" fill="white"/>
</clipPath>
</defs>
</svg>
