<svg width="32" height="32" viewBox="0 0 32 32" fill="none" xmlns="http://www.w3.org/2000/svg">
<g clip-path="url(#clip0_4406_26456)">
<path d="M10.6654 15.9998C10.6654 14.5332 9.46536 13.3332 7.9987 13.3332C6.53203 13.3332 5.33203 14.5332 5.33203 15.9998C5.33203 17.4665 6.53203 18.6665 7.9987 18.6665C9.46536 18.6665 10.6654 17.4665 10.6654 15.9998ZM13.332 15.9998C13.332 17.4665 14.532 18.6665 15.9987 18.6665C17.4654 18.6665 18.6654 17.4665 18.6654 15.9998C18.6654 14.5332 17.4654 13.3332 15.9987 13.3332C14.532 13.3332 13.332 14.5332 13.332 15.9998ZM21.332 15.9998C21.332 17.4665 22.532 18.6665 23.9987 18.6665C25.4654 18.6665 26.6654 17.4665 26.6654 15.9998C26.6654 14.5332 25.4654 13.3332 23.9987 13.3332C22.532 13.3332 21.332 14.5332 21.332 15.9998Z" fill="#7763EA"/>
</g>
<defs>
<clipPath id="clip0_4406_26456">
<rect width="32" height="32" fill="white" transform="matrix(0 -1 1 0 0 32)"/>
</clipPath>
</defs>
</svg>
