<svg xmlns="http://www.w3.org/2000/svg" width="700" height="332" fill="none">
    <path fill="#707D8A"
          d="M3.487 83.137h.82v-1.149c1.607-.123 2.954-1.046 2.954-2.686v-.007c0-1.442-.985-2.167-2.741-2.59l-.212-.049V73.52c.923.116 1.565.683 1.66 1.544l.008.062h1.19l-.008-.103c-.095-1.435-1.278-2.44-2.85-2.584V71.29h-.82v1.155c-1.614.15-2.776 1.142-2.776 2.605v.007c0 1.353.916 2.112 2.618 2.522l.157.041v3.288c-1.175-.13-1.681-.793-1.818-1.579l-.014-.082H.465l.008.096c.11 1.524 1.394 2.495 3.014 2.638v1.156Zm-1.586-8.142v-.007c0-.663.547-1.326 1.586-1.47v2.94c-1.169-.287-1.586-.793-1.586-1.463Zm2.448 2.83c1.346.328 1.722.8 1.722 1.545v.007c0 .793-.492 1.442-1.763 1.545v-3.104l.04.007Zm8.155 4.485c2.017 0 3.493-1.409 3.493-3.35v-.014c0-1.873-1.394-3.26-3.274-3.26-1.34 0-2.352.71-2.748 1.585h-.028c0-.075 0-.143.007-.211.055-2.072.78-3.856 2.618-3.856 1.012 0 1.716.506 2.01 1.32l.027.075h1.252l-.021-.09c-.328-1.435-1.58-2.392-3.254-2.392-2.413 0-3.828 1.942-3.828 5.264v.014c0 3.657 1.928 4.915 3.746 4.915Zm-2.263-3.364v-.007c0-1.257.978-2.173 2.27-2.173 1.299 0 2.235.922 2.235 2.208v.013c0 1.245-.998 2.229-2.256 2.229-1.264 0-2.249-1.005-2.249-2.27Zm7.404 3.2h1.19v-2.68l.662-.636 2.639 3.316h1.38l-3.178-4.04 3.083-3.07h-1.442l-3.117 3.138h-.028V72.28h-1.19v9.865ZM3.734 16.991h.82v-1.148c1.606-.123 2.953-1.046 2.953-2.687v-.007c0-1.442-.984-2.167-2.741-2.59l-.212-.048V7.373c.923.116 1.565.684 1.661 1.545l.007.061h1.19l-.008-.102c-.095-1.436-1.278-2.44-2.85-2.584V5.145h-.82V6.3C2.12 6.45.958 7.44.958 8.904v.007c0 1.354.916 2.112 2.618 2.523l.158.04v3.289c-1.176-.13-1.682-.793-1.819-1.58l-.014-.081H.712l.007.095c.11 1.525 1.394 2.495 3.015 2.639v1.155ZM2.148 8.85v-.007c0-.663.546-1.326 1.586-1.47v2.94c-1.17-.288-1.586-.793-1.586-1.463Zm2.447 2.83c1.347.328 1.723.8 1.723 1.545v.006c0 .793-.493 1.443-1.764 1.545v-3.103l.04.007Zm7.984 4.484c2.092 0 3.582-1.176 3.582-2.83v-.014c0-1.216-.854-2.228-2.119-2.522v-.027c1.08-.336 1.764-1.156 1.764-2.195v-.014c0-1.49-1.36-2.59-3.227-2.59-1.866 0-3.226 1.1-3.226 2.59v.014c0 1.04.683 1.86 1.763 2.194v.028c-1.264.294-2.119 1.306-2.119 2.522v.014c0 1.654 1.49 2.83 3.582 2.83Zm0-5.852c-1.19 0-2.003-.676-2.003-1.633v-.014c0-.957.814-1.634 2.003-1.634 1.19 0 2.003.677 2.003 1.634v.014c0 .957-.813 1.633-2.003 1.633Zm0 4.779c-1.36 0-2.33-.766-2.33-1.832v-.014c0-1.08.963-1.852 2.33-1.852s2.331.772 2.331 1.852v.014c0 1.066-.97 1.832-2.33 1.832Zm5.066.909h1.19v-2.68l.662-.635L22.136 16h1.38l-3.178-4.04 3.083-3.07h-1.442l-3.117 3.138h-.028V6.136h-1.19V16ZM3.939 149.282h.82v-1.148c1.606-.123 2.953-1.046 2.953-2.687v-.006c0-1.443-.984-2.167-2.741-2.591l-.212-.048v-3.138c.923.116 1.565.684 1.661 1.545l.007.062h1.19l-.008-.103c-.095-1.435-1.278-2.44-2.85-2.584v-1.148h-.82v1.155c-1.614.15-2.776 1.142-2.776 2.604v.007c0 1.354.916 2.113 2.618 2.523l.158.041v3.288c-1.176-.13-1.682-.793-1.819-1.579l-.013-.082H.917l.007.095c.11 1.525 1.394 2.496 3.015 2.639v1.155Zm-1.586-8.141v-.007c0-.663.547-1.326 1.586-1.47v2.94c-1.17-.287-1.586-.793-1.586-1.463Zm2.447 2.83c1.347.328 1.723.8 1.723 1.545v.007c0 .793-.493 1.442-1.764 1.545v-3.104l.04.007Zm7.978 4.484c2.05 0 3.506-1.381 3.513-3.356v-.014c0-1.893-1.367-3.267-3.26-3.267-.958 0-1.778.355-2.243 1.018h-.027l.335-3.315h4.635v-1.094h-5.647l-.506 5.626h1.087c.13-.226.287-.417.465-.581.438-.397 1.012-.595 1.682-.595 1.305 0 2.242.93 2.249 2.229v.013c0 1.326-.93 2.256-2.27 2.256-1.183 0-2.058-.745-2.18-1.723l-.007-.054h-1.21l.007.075c.143 1.606 1.49 2.782 3.377 2.782Zm4.867-.164h1.19v-2.68l.662-.635 2.639 3.315h1.38l-3.178-4.04 3.083-3.069h-1.442l-3.117 3.137h-.028v-5.892h-1.19v9.864ZM4.198 215.428h.82v-1.148c1.607-.123 2.954-1.046 2.954-2.687v-.007c0-1.442-.985-2.167-2.741-2.591l-.212-.047v-3.138c.923.116 1.565.683 1.66 1.545l.008.061h1.19l-.008-.102c-.095-1.436-1.278-2.441-2.85-2.584v-1.149h-.82v1.156c-1.614.15-2.776 1.141-2.776 2.604v.007c0 1.353.916 2.112 2.618 2.522l.157.041v3.289c-1.175-.13-1.681-.793-1.818-1.58l-.014-.082h-1.19l.008.096c.11 1.525 1.394 2.495 3.014 2.639v1.155Zm-1.586-8.142v-.006c0-.663.547-1.327 1.586-1.47v2.939c-1.169-.287-1.586-.793-1.586-1.463Zm2.448 2.831c1.346.328 1.722.799 1.722 1.544v.007c0 .793-.492 1.443-1.763 1.545v-3.103l.04.007Zm4.587 4.32h6.507v-1.094h-4.819v-.027l2.345-2.407c1.811-1.852 2.31-2.666 2.31-3.746v-.013c0-1.545-1.305-2.741-3.09-2.741-1.838 0-3.315 1.264-3.315 2.973v.041h1.19v-.034c0-1.06.916-1.907 2.146-1.907 1.073 0 1.832.724 1.839 1.729v.014c0 .82-.308 1.353-1.64 2.741l-3.473 3.623v.848Zm7.998 0h1.19v-2.68l.662-.636 2.639 3.316h1.38l-3.178-4.04 3.083-3.07h-1.442l-3.117 3.138h-.028v-5.892h-1.19v9.864ZM10.43 281.573h.821v-1.148c1.607-.123 2.953-1.046 2.953-2.686v-.007c0-1.443-.984-2.167-2.741-2.591l-.212-.048v-3.138c.923.117 1.566.684 1.661 1.545l.007.062h1.19l-.007-.103c-.096-1.435-1.279-2.44-2.85-2.584v-1.148h-.821v1.155c-1.613.15-2.776 1.142-2.776 2.605v.006c0 1.354.916 2.113 2.619 2.523l.157.041v3.288c-1.176-.13-1.682-.793-1.819-1.579l-.013-.082h-1.19l.007.096c.11 1.524 1.395 2.495 3.015 2.638v1.155Zm-1.585-8.141v-.007c0-.663.547-1.326 1.586-1.47v2.94c-1.17-.287-1.586-.793-1.586-1.463Zm2.447 2.83c1.347.328 1.723.8 1.723 1.545v.007c0 .793-.492 1.442-1.764 1.545v-3.104l.041.007Zm8.025 4.484c2.27 0 3.63-1.962 3.63-5.092v-.014c0-3.131-1.36-5.086-3.63-5.086-2.269 0-3.616 1.955-3.616 5.086v.014c0 3.13 1.347 5.092 3.616 5.092Zm0-1.073c-1.503 0-2.378-1.545-2.378-4.019v-.014c0-2.475.875-4.006 2.378-4.006 1.504 0 2.393 1.531 2.393 4.006v.014c0 2.474-.889 4.019-2.393 4.019ZM43.784 320.179c1.825 0 2.906-1.107 2.906-2.973v-7.055h-1.231v7.041c0 1.203-.588 1.853-1.682 1.853-.977 0-1.462-.623-1.538-1.368l-.007-.068h-1.23l.007.096c.102 1.415 1.066 2.474 2.775 2.474Zm6.576-.027c.95 0 1.805-.513 2.222-1.292h.027v1.155h1.19V315.1c0-1.422-1.053-2.331-2.734-2.331-1.675 0-2.694.944-2.796 2.112l-.007.076h1.148l.014-.062c.136-.636.71-1.073 1.627-1.073.991 0 1.558.526 1.558 1.394v.595l-2.037.116c-1.634.096-2.577.855-2.577 2.065v.013c0 1.292.95 2.147 2.365 2.147Zm-1.148-2.147v-.013c0-.663.547-1.087 1.497-1.142l1.9-.116v.581c0 1.032-.861 1.805-1.982 1.805-.855 0-1.415-.431-1.415-1.115Zm6.098 2.01h1.189v-4.183c0-1.21.731-2.01 1.853-2.01 1.093 0 1.633.636 1.633 1.791v4.402h1.19v-4.614c0-1.62-.902-2.632-2.461-2.632-1.08 0-1.805.486-2.188 1.149H56.5v-1.012h-1.19v7.109ZM119.358 320.015h1.231v-4.272h4.368v-1.094h-4.368v-3.391h4.757v-1.107h-5.988v9.864Zm9.864.137c1.552 0 2.714-.93 2.947-2.105l.013-.069h-1.169l-.02.062c-.205.608-.841 1.059-1.743 1.059-1.265 0-2.072-.854-2.099-2.317h5.12v-.438c0-2.132-1.182-3.575-3.124-3.575-1.941 0-3.199 1.511-3.199 3.712v.007c0 2.235 1.23 3.664 3.274 3.664Zm-.082-6.33c1.039 0 1.805.649 1.921 2.03h-3.889c.129-1.326.936-2.03 1.968-2.03Zm7.869 6.33c1.818 0 3.021-1.449 3.021-3.691v-.007c0-2.242-1.217-3.685-3.001-3.685-1.005 0-1.832.506-2.276 1.326h-.028v-3.944h-1.189v9.864h1.189v-1.203h.028c.444.827 1.237 1.34 2.256 1.34Zm-.233-1.053c-1.203 0-2.058-1.046-2.058-2.638v-.007c0-1.586.862-2.632 2.058-2.632 1.258 0 2.037 1.012 2.037 2.632v.007c0 1.633-.779 2.638-2.037 2.638ZM198.711 320.015v-9.864h1.422l3.417 8.313h.042l3.417-8.313h1.422v9.864h-1.148v-7.622h-.041l-3.151 7.622h-1.04l-3.151-7.622h-.041v7.622h-1.148Zm13.323.137c-1.415 0-2.365-.855-2.365-2.147v-.013c0-1.21.943-1.969 2.577-2.065l2.037-.116v-.595c0-.868-.567-1.394-1.559-1.394-.916 0-1.49.437-1.627 1.073l-.013.062h-1.149l.007-.076c.103-1.168 1.121-2.112 2.796-2.112 1.682 0 2.734.909 2.734 2.331v4.915h-1.189v-1.155h-.027c-.417.779-1.272 1.292-2.222 1.292Zm-1.149-2.147c0 .684.561 1.115 1.415 1.115 1.122 0 1.983-.773 1.983-1.805v-.581l-1.9.116c-.951.055-1.498.479-1.498 1.142v.013Zm6.098 2.01v-7.109h1.19v1.203h.027c.239-.82.854-1.34 1.654-1.34.205 0 .383.034.479.048v1.155c-.096-.034-.349-.068-.636-.068-.923 0-1.524.643-1.524 1.723v4.388h-1.19ZM277.712 320.015h1.292l.998-2.823h3.972l.998 2.823h1.292l-3.664-9.864h-1.217l-3.671 9.864Zm4.266-8.387h.027l1.599 4.518h-3.226l1.6-4.518Zm5.236 10.78h1.189v-3.582h.028c.444.82 1.271 1.326 2.276 1.326 1.784 0 3.001-1.442 3.001-3.685v-.006c0-2.243-1.203-3.692-3.021-3.692-1.019 0-1.812.513-2.256 1.34h-.028v-1.203h-1.189v9.502Zm3.24-3.309c-1.196 0-2.058-1.046-2.058-2.632v-.006c0-1.593.855-2.639 2.058-2.639 1.258 0 2.037 1.005 2.037 2.639v.006c0 1.621-.779 2.632-2.037 2.632Zm4.457.916h1.19v-4.388c0-1.08.601-1.723 1.524-1.723.287 0 .54.034.636.068v-1.155c-.096-.014-.274-.048-.479-.048-.8 0-1.415.52-1.654 1.34h-.027v-1.203h-1.19v7.109ZM356.465 320.015v-9.864h1.422l3.418 8.313h.041l3.418-8.313h1.422v9.864h-1.149v-7.622h-.041l-3.151 7.622h-1.039l-3.151-7.622h-.041v7.622h-1.149Zm13.323.137c-1.415 0-2.365-.855-2.365-2.147v-.013c0-1.21.943-1.969 2.577-2.065l2.037-.116v-.595c0-.868-.567-1.394-1.558-1.394-.916 0-1.49.437-1.627 1.073l-.014.062h-1.148l.007-.076c.102-1.168 1.121-2.112 2.795-2.112 1.682 0 2.735.909 2.735 2.331v4.915h-1.19v-1.155h-.027c-.417.779-1.271 1.292-2.222 1.292Zm-1.148-2.147c0 .684.56 1.115 1.415 1.115 1.121 0 1.982-.773 1.982-1.805v-.581l-1.9.116c-.95.055-1.497.479-1.497 1.142v.013Zm6.781 4.403c-.232 0-.485-.028-.636-.055v-.971c.103.021.24.041.383.041.752 0 1.169-.191 1.456-.998l.144-.403-2.639-7.116h1.272l1.962 5.92h.027l1.969-5.92h1.251l-2.776 7.554c-.506 1.36-1.128 1.948-2.413 1.948ZM440.934 320.179c1.826 0 2.906-1.107 2.906-2.973v-7.055h-1.231v7.041c0 1.203-.588 1.853-1.681 1.853-.978 0-1.463-.623-1.538-1.368l-.007-.068h-1.231l.007.096c.103 1.415 1.066 2.474 2.775 2.474Zm7.062-.027c1.08 0 1.805-.485 2.187-1.148h.028v1.011h1.189v-7.109h-1.189v4.183c0 1.21-.732 2.01-1.853 2.01-1.093 0-1.634-.635-1.634-1.791v-4.402h-1.189v4.614c0 1.62.902 2.632 2.461 2.632Zm4.956-.137h1.189v-4.183c0-1.21.732-2.01 1.853-2.01 1.094 0 1.634.636 1.634 1.791v4.402h1.189v-4.614c0-1.62-.902-2.632-2.461-2.632-1.08 0-1.804.486-2.187 1.149h-.028v-1.012h-1.189v7.109ZM520.34 320.179c1.825 0 2.906-1.107 2.906-2.973v-7.055h-1.231v7.041c0 1.203-.588 1.853-1.682 1.853-.977 0-1.462-.623-1.538-1.368l-.007-.068h-1.23l.007.096c.102 1.415 1.066 2.474 2.775 2.474Zm7.062-.027c1.08 0 1.804-.485 2.187-1.148h.028v1.011h1.189v-7.109h-1.189v4.183c0 1.21-.732 2.01-1.853 2.01-1.094 0-1.634-.635-1.634-1.791v-4.402h-1.189v4.614c0 1.62.902 2.632 2.461 2.632Zm5.017-.137h1.19v-9.864h-1.19v9.864ZM592.148 320.015h1.292l.998-2.823h3.972l.998 2.823h1.292l-3.664-9.864h-1.217l-3.671 9.864Zm4.266-8.387h.027l1.6 4.518h-3.227l1.6-4.518Zm7.458 8.524c1.08 0 1.804-.485 2.187-1.148h.027v1.011h1.19v-7.109h-1.19v4.183c0 1.21-.731 2.01-1.852 2.01-1.094 0-1.634-.635-1.634-1.791v-4.402h-1.189v4.614c0 1.62.902 2.632 2.461 2.632Zm7.964 2.393c1.927 0 3.137-1.081 3.137-2.728v-6.911h-1.189v1.203h-.028c-.437-.793-1.23-1.34-2.235-1.34-1.805 0-3.042 1.436-3.042 3.644v.007c0 2.221 1.224 3.664 3.015 3.664 1.018 0 1.839-.506 2.262-1.292h.028v.909c0 1.1-.711 1.791-1.962 1.791-.971 0-1.648-.315-1.873-.827l-.028-.062h-1.196l.014.062c.232 1.052 1.34 1.88 3.097 1.88Zm-.083-3.514c-1.264 0-2.057-.998-2.057-2.611v-.007c0-1.579.793-2.591 2.057-2.591 1.204 0 2.031 1.025 2.031 2.591v.007c0 1.579-.821 2.611-2.031 2.611ZM677.018 320.179c2.256 0 3.644-1.107 3.644-2.857v-.007c0-1.504-.848-2.324-2.871-2.768l-1.094-.24c-1.285-.28-1.88-.786-1.88-1.593v-.006c0-.951.861-1.579 2.181-1.586 1.251 0 2.091.594 2.242 1.599l.013.096h1.231l-.007-.103c-.109-1.613-1.517-2.727-3.445-2.727-2.03 0-3.466 1.135-3.473 2.755v.007c0 1.442.902 2.31 2.83 2.734l1.094.239c1.353.301 1.921.786 1.921 1.655v.006c0 1.019-.896 1.662-2.318 1.662-1.428 0-2.385-.609-2.529-1.6l-.013-.096h-1.231l.007.096c.123 1.688 1.565 2.734 3.698 2.734Zm7.827-.027c1.552 0 2.714-.93 2.947-2.105l.013-.069h-1.169l-.02.062c-.205.608-.841 1.059-1.743 1.059-1.265 0-2.072-.854-2.099-2.317h5.12v-.438c0-2.132-1.183-3.575-3.124-3.575s-3.199 1.511-3.199 3.712v.007c0 2.235 1.23 3.664 3.274 3.664Zm-.082-6.33c1.039 0 1.805.649 1.921 2.03h-3.89c.13-1.326.937-2.03 1.969-2.03Zm4.334 8.586h1.19v-3.582h.027c.444.82 1.272 1.326 2.276 1.326 1.785 0 3.001-1.442 3.001-3.685v-.006c0-2.243-1.203-3.692-3.021-3.692-1.019 0-1.812.513-2.256 1.34h-.027v-1.203h-1.19v9.502Zm3.24-3.309c-1.196 0-2.057-1.046-2.057-2.632v-.006c0-1.593.854-2.639 2.057-2.639 1.258 0 2.038 1.005 2.038 2.639v.006c0 1.621-.78 2.632-2.038 2.632Z"/>
    <path stroke="#DCE3EB" stroke-dasharray="3 4" stroke-linecap="round"
          d="M40.715 278.575H699M40.715 212.429H699M40.715 146.284H699M40.715 80.138H699M40.715 13.992H699"/>
    <path fill="url(#a)"
          d="m62.123 222.161-21.408 11.953v43.825H699V78.734l-39.757 63.745-27.524-59.761-33.641 61.753-25.995-23.904-32.876 21.912L517.8 84.71l-17.585-70.718-31.347 61.754H439.05l-21.408 35.857h-25.995l-20.643-78.686-18.349 132.471h-19.879l-30.582-42.829h-23.701l-32.112 71.714h-27.524l-11.468 59.761-15.291-88.646h-22.173l-9.174 18.924h-20.644l-24.465 26.893-11.469-81.674h-26.76l-15.29 92.63Z"/>
    <path stroke="url(#b)" stroke-width="2"
          d="m40.715 234.114 21.407-11.953 15.292-92.63h26.759l11.469 81.674 24.465-26.893h20.644l9.174-18.924h22.172l15.292 88.646 11.468-59.761h27.524l32.112-71.714h23.701l30.582 42.829h19.879l18.349-132.471 20.643 78.686h25.995l21.408-35.857h29.818l31.347-61.754L517.8 84.71l21.407 57.769 32.876-21.912 25.995 23.904 33.641-61.753 27.524 59.761L699 78.734"/>
    <defs>
        <linearGradient id="a" x1="56.006" x2="699" y1="228.137" y2="227.551" gradientUnits="userSpaceOnUse">
            <stop stop-color="#4CDFE8" stop-opacity=".05"/>
            <stop offset="1" stop-color="#7947F7" stop-opacity=".05"/>
        </linearGradient>
        <linearGradient id="b" x1="36.892" x2="708.939" y1="191.285" y2="191.285" gradientUnits="userSpaceOnUse">
            <stop stop-color="#4CDFE8"/>
            <stop offset="1" stop-color="#7947F7"/>
        </linearGradient>
    </defs>
</svg>
