<?xml version="1.0" encoding="UTF-8" standalone="no"?>
<svg
        width="64"
        height="64"
        viewBox="0 0 64 64"
        fill="none"
        version="1.1"
        id="svg3"
        xmlns="http://www.w3.org/2000/svg"
        xmlns:svg="http://www.w3.org/2000/svg">
    <defs
            id="defs3" />
    <path
            d="m 24.7876,51.364 c 2.025,-0.0304 3.9522,-0.0405 5.8764,-0.0516 0.8001,-0.0046 1.4176,0.3059 1.4271,1.1535 0.0305,3.3893 0.0118,6.7779 0.0118,10.3235 C 30.547592,62.7894 28.4213,62.3401 27,62 13.4096,58.7732 5.31393,50.8282 2.49257,37.4536 -1.02197,20.8204 9.7146,4.82294 26.7449,1.66471 40.1169,-0.815945 53.2298,5.0771 59.9016,16.7921 c 3.2798,5.711 4.4776,12.0031 3.7492,18.6136 -0.7441,6.6947 -3.2946,12.6063 -7.9448,17.5457 -0.4341,0.4124 -0.4578,0.876 -0.4578,1.3775 0.0028,2.6215 0.0092,5.2405 -0.0028,7.8593 -0.0075,1.3599 -0.4416,1.8027 -1.7853,1.8192 -1.538,0.0184 -3.0749,0.0257 -4.6129,-0.0028 -1.1996,-0.0211 -1.5993,-0.4183 -1.5993,-1.5942 -0.0046,-10.2268 0.0075,-20.4536 -0.0092,-30.6813 -0.0028,-1.0914 0.5007,-1.5396 1.5316,-1.5396 1.538,0.0028 3.0751,-0.0092 4.6131,-0.0028 1.4134,0.0074 1.8574,0.4388 1.8601,1.8611 0.0121,4.3458 0.0028,8.6916 0.0139,13.0373 0,0.4013 -0.144,0.8451 0.1892,1.2116 C 60.4157,39.2138 61.7834,26.9845 55.2621,16.9628 48.8691,7.13039 35.8171,2.52307 24.3092,6.19134 12.6932,9.89472 5.0786,21.094 5.88697,33.6248 6.67676,45.8715 15.2008,54.8159 23.7722,57.6691 v -3.7982 c 0,-0.6782 0.1395,-1.2946 1.0154,-2.5078"
            fill="#7763ea"
            id="path1" />
    <path
            d="m 38.5433,16.6866 c 1.9862,1.2992 3.0634,3.0898 3.4628,5.3153 0.234,1.3034 -0.0832,1.6769 -1.4158,1.6999 -0.4235,0.0074 -0.8525,-0.0406 -1.2684,0.0091 -1.3353,0.1588 -2.1122,-0.2315 -2.6921,-1.6236 -1.1245,-2.7045 -5.5251,-3.4869 -7.7529,-1.5497 -1.5885,1.379 -1.5294,3.6609 0.147,5.0132 1.2002,0.9679 2.6749,1.3191 4.1163,1.7319 1.6616,0.4771 3.3383,0.8941 4.955,1.5271 3.1643,1.237 4.763,3.6148 4.8343,6.9012 0.0713,3.3214 -1.3798,5.9226 -4.3589,7.5703 -1.0516,0.568 -2.1952,0.9467 -3.3785,1.1186 -0.7496,0.118 -1.0153,0.4793 -1.0125,1.2366 0.0139,2.9258 0.4996,2.7838 -2.9049,2.7654 -1.5019,-0.0092 -1.622,-0.1346 -1.6266,-1.6605 0,-0.2315 -0.0305,-0.4648 0.0046,-0.6898 0.1867,-1.1777 -0.3425,-1.6949 -1.4882,-1.9724 -3.4388,-0.8292 -5.6769,-2.9255 -6.4631,-6.4408 -0.2583,-1.152 -0.1159,-1.3364 1.0927,-1.3604 0.3858,-0.0073 0.7744,0.0332 1.1555,-0.0073 1.6149,-0.1696 2.7319,0.1274 3.6752,1.8181 1.4377,2.58 6.3061,3.0534 8.5701,1.1622 1.9722,-1.6486 1.5672,-4.7931 -0.7903,-5.9736 -1.4521,-0.7257 -3.0508,-1.0197 -4.6034,-1.4587 -1.6644,-0.4716 -3.3177,-0.9815 -4.7855,-1.9393 -2.8122,-1.8331 -3.895,-4.5036 -3.4857,-7.7242 0.4214,-3.3079 2.3034,-5.5971 5.5554,-6.4967 1.254,-0.3467 1.6507,-0.8731 1.5824,-2.1186 -0.0999,-1.834 -0.026,-1.8358 1.8421,-1.9896 0.1153,-0.0111 0.2305,-0.0212 0.3456,-0.0304 2.2889,-0.139 2.4053,-0.0993 2.3027,2.155 -0.0544,1.2161 0.3851,1.7185 1.5346,1.8861 0.9932,0.1466 1.9138,0.5594 2.8487,1.1302"
            fill="#7763ea"
            id="path2" />
    <path
            d="M 36,63 V 48 a 1,1 135 0 1 1,-1 l 5,0 a 1,1 45 0 1 1,1 v 15 a 1,1 135 0 1 -1,1 h -5 a 1,1 45 0 1 -1,-1 z"
            fill="#7763ea"
            id="path3"
            style="stroke-width:0.894427" />
</svg>