<svg width="32" height="32" viewBox="0 0 32 32" fill="none" xmlns="http://www.w3.org/2000/svg">
<path d="M29.8123 15.4325C28.5136 14.0677 27.9235 12.8849 27.9235 10.8755V10.1922C27.9235 7.57366 27.2538 5.8865 25.7979 4.19935C23.554 1.57919 19.7765 0 16.0784 0H15.9212C12.3009 0 8.64167 1.50667 6.35889 4.02048C4.82348 5.74148 4.0761 7.50114 4.0761 10.1922V10.8755C4.0761 12.8849 3.52483 14.0677 2.18732 15.4325C1.20317 16.4381 0.888672 17.7304 0.888672 19.1291C0.888672 20.5294 1.3993 21.8556 2.42408 22.9337C3.76159 24.226 5.65037 25.0511 7.57979 25.1945C10.3732 25.4813 13.1666 25.5893 16.0007 25.5893C18.833 25.5893 21.6264 25.4088 24.4215 25.1945C26.3492 25.0511 28.238 24.226 29.5755 22.9337C30.5985 21.8556 31.1109 20.5294 31.1109 19.1291C31.1109 17.7304 30.7964 16.4381 29.8123 15.4325Z" fill="#7763EA"/>
<path opacity="0.4" d="M19.5711 27.5654C18.6824 27.3946 13.267 27.3946 12.3782 27.5654C11.6185 27.7233 10.7969 28.0907 10.7969 28.8964C10.841 29.6651 11.3411 30.3435 12.0337 30.7737L12.0319 30.7753C12.9277 31.4038 13.979 31.8034 15.0798 31.9468C15.6664 32.0193 16.2636 32.0161 16.8714 31.9468C17.9703 31.8034 19.0216 31.4038 19.9174 30.7753L19.9157 30.7737C20.6083 30.3435 21.1083 29.6651 21.1525 28.8964C21.1525 28.0907 20.3309 27.7233 19.5711 27.5654Z" fill="#B9AAFF"/>
<ellipse cx="26.4212" cy="6.70312" rx="5.33333" ry="4.8" fill="#EC4F3C"/>
</svg>
