<svg width="18" height="20" viewBox="0 0 18 20" fill="none" xmlns="http://www.w3.org/2000/svg">
<path d="M18 7.25702V14.9308C18 18.0698 16.0237 20.0002 12.8623 20.0002H5.12695C1.99554 20 0.000118438 18.03 0 14.8703V7.25702H18ZM13.041 14.3908C12.5866 14.4008 12.2206 14.7804 12.2305 15.2404C12.2307 15.7002 12.5965 16.08 13.0508 16.09C13.5148 16.0899 13.8904 15.7101 13.8906 15.2404C13.8906 14.7715 13.515 14.391 13.0508 14.3908H13.041ZM4.91016 14.3801C4.45571 14.4011 4.09961 14.7804 4.09961 15.2404C4.11956 15.7001 4.49503 16.061 4.94922 16.0402C5.39378 16.0212 5.74925 15.6408 5.72949 15.1808C5.71952 14.731 5.35459 14.3802 4.91016 14.3801ZM8.98047 14.3801C8.52602 14.4011 8.16992 14.7804 8.16992 15.2404C8.18987 15.7002 8.56532 16.0611 9.01953 16.0402C9.4641 16.0212 9.81956 15.6408 9.7998 15.1808C9.78983 14.731 9.42487 14.3802 8.98047 14.3801ZM4.91992 10.7502C4.46564 10.7712 4.10962 11.1508 4.10938 11.6105C4.12913 12.0694 4.50472 12.4311 4.95898 12.4103C5.40355 12.3913 5.75999 12.011 5.74023 11.55C5.73034 11.101 5.36446 10.7502 4.91992 10.7502ZM8.98047 10.7502C8.52618 10.7712 8.17017 11.1508 8.16992 11.6105C8.18968 12.0695 8.56519 12.4312 9.01953 12.4103C9.4641 12.3913 9.81956 12.011 9.7998 11.55C9.78991 11.1011 9.42492 10.7503 8.98047 10.7502ZM13.0508 10.7609C12.5964 10.7709 12.2404 11.1409 12.2402 11.6008V11.6105C12.2501 12.0695 12.6257 12.4203 13.0801 12.4103C13.5246 12.4013 13.88 12.0207 13.8701 11.5607C13.8502 11.12 13.4951 10.7611 13.0508 10.7609Z" fill="#7763EA"/>
<path opacity="0.4" d="M0.00390625 7.25693C0.0167493 6.66993 0.0661455 5.50493 0.159011 5.12993C0.633215 3.02093 2.24353 1.68093 4.5454 1.48993H13.4565C15.7386 1.69093 17.3687 3.03993 17.8429 5.12993C17.9348 5.49493 17.9841 6.66893 17.997 7.25693H0.00390625Z" fill="#B9AAFF"/>
<path d="M5.30562 4.59C5.74031 4.59 6.06633 4.261 6.06633 3.82V0.771C6.06633 0.33 5.74031 0 5.30562 0C4.87094 0 4.54492 0.33 4.54492 0.771V3.82C4.54492 4.261 4.87094 4.59 5.30562 4.59Z" fill="#7763EA"/>
<path d="M12.6943 4.59C13.1191 4.59 13.455 4.261 13.455 3.82V0.771C13.455 0.33 13.1191 0 12.6943 0C12.2596 0 11.9336 0.33 11.9336 0.771V3.82C11.9336 4.261 12.2596 4.59 12.6943 4.59Z" fill="#7763EA"/>
</svg>
