<svg width="32" height="32" viewBox="0 0 32 32" fill="none" xmlns="http://www.w3.org/2000/svg">
<path d="M0.654297 15.9029C0.654297 17.6627 2.0943 19.1026 3.85429 19.1026C5.61429 19.1026 7.05429 17.6627 7.05429 15.9029C7.05429 14.1431 5.61429 12.7032 3.85429 12.7032C2.0943 12.7032 0.654295 14.1431 0.654297 15.9029Z" fill="#B9AAFF"/>
<path d="M29.0493 14.0863H12.3446C11.0767 14.0863 10.0488 14.9127 10.0488 15.932C10.0488 16.9514 11.0767 17.7778 12.3446 17.7778H29.0493C30.3172 17.7778 31.345 16.9514 31.345 15.932C31.345 14.9127 30.3172 14.0863 29.0493 14.0863Z" fill="#7763EA"/>
<path d="M0.654297 27.8997C0.654297 29.6595 2.0943 31.0994 3.85429 31.0994C5.61429 31.0994 7.05429 29.6595 7.05429 27.8997C7.05429 26.1399 5.61429 24.7 3.85429 24.7C2.0943 24.7 0.654295 26.1399 0.654297 27.8997Z" fill="#B9AAFF"/>
<path d="M29.0493 26.0831H12.3446C11.0767 26.0831 10.0488 26.9094 10.0488 27.9288C10.0488 28.9482 11.0767 29.7745 12.3446 29.7745H29.0493C30.3172 29.7745 31.345 28.9482 31.345 27.9288C31.345 26.9094 30.3172 26.0831 29.0493 26.0831Z" fill="#7763EA"/>
<path d="M0.654297 3.90613C0.654297 5.66598 2.0943 7.10584 3.85429 7.10584C5.61429 7.10584 7.05429 5.66598 7.05429 3.90613C7.05429 2.14635 5.61429 0.706482 3.85429 0.706482C2.0943 0.706482 0.654295 2.14635 0.654297 3.90613Z" fill="#B9AAFF"/>
<path d="M29.0493 2.42175H12.3446C11.0767 2.42175 10.0488 3.24811 10.0488 4.26748C10.0488 5.28685 11.0767 6.11321 12.3446 6.11321H29.0493C30.3172 6.11321 31.345 5.28685 31.345 4.26748C31.345 3.24811 30.3172 2.42175 29.0493 2.42175Z" fill="#7763EA"/>
</svg>
