<svg width="32" height="32" viewBox="0 0 32 32" fill="none" xmlns="http://www.w3.org/2000/svg">
<path opacity="0.4" d="M21.4335 2.66666H25.9481C27.8178 2.66666 29.3328 4.19446 29.3328 6.07994V10.6327C29.3328 12.5182 27.8178 14.046 25.9481 14.046H21.4335C19.5638 14.046 18.0488 12.5182 18.0488 10.6327V6.07994C18.0488 4.19446 19.5638 2.66666 21.4335 2.66666" fill="#B9AAFF"/>
<path d="M10.5654 17.9538C12.4349 17.9538 13.95 19.4816 13.9502 21.3669V25.9196C13.9502 27.8038 12.4351 29.3336 10.5654 29.3336H6.05078C4.18109 29.3336 2.66602 27.8038 2.66602 25.9196V21.3669C2.66625 19.4816 4.18123 17.9538 6.05078 17.9538H10.5654ZM25.9482 17.9538C27.8177 17.9539 29.3328 19.4817 29.333 21.3669V25.9196C29.333 27.8037 27.8178 29.3335 25.9482 29.3336H21.4336C19.5639 29.3336 18.0488 27.8038 18.0488 25.9196V21.3669C18.0491 19.4816 19.564 17.9538 21.4336 17.9538H25.9482ZM10.5654 2.66666C12.435 2.66671 13.9501 4.19438 13.9502 6.07974V10.6325C13.9502 12.5179 12.4351 14.0455 10.5654 14.0456H6.05078C4.18109 14.0456 2.66602 12.518 2.66602 10.6325V6.07974C2.66612 4.19435 4.18116 2.66666 6.05078 2.66666H10.5654Z" fill="#7763EA"/>
</svg>
