<svg width="32" height="32" viewBox="0 0 32 32" fill="none" xmlns="http://www.w3.org/2000/svg">
<path d="M16.0163 19.7735C13.877 19.7735 12.1465 18.1068 12.1465 16.0135C12.1465 13.9202 13.877 12.2402 16.0163 12.2402C18.1556 12.2402 19.8452 13.9202 19.8452 16.0135C19.8452 18.1068 18.1556 19.7735 16.0163 19.7735" fill="#7763EA"/>
<path opacity="0.4" d="M28.3075 19.1601C28.0486 18.7601 27.6807 18.3601 27.2038 18.1068C26.8222 17.9201 26.577 17.6135 26.359 17.2535C25.664 16.1068 26.0728 14.6001 27.231 13.9201C28.5936 13.1601 29.0297 11.4668 28.2394 10.1468L27.3264 8.57348C26.5497 7.25348 24.8465 6.78681 23.4975 7.56014C22.2984 8.20014 20.7586 7.77348 20.0637 6.64014C19.8457 6.26681 19.723 5.86681 19.7503 5.46681C19.7912 4.94681 19.6277 4.45348 19.3824 4.05348C18.8782 3.22681 17.9653 2.66681 16.957 2.66681H15.0357C14.041 2.69348 13.128 3.22681 12.6239 4.05348C12.365 4.45348 12.2151 4.94681 12.2423 5.46681C12.2696 5.86681 12.1469 6.26681 11.9289 6.64014C11.234 7.77348 9.69424 8.20014 8.50877 7.56014C7.14616 6.78681 5.45653 7.25348 4.66621 8.57348L3.75326 10.1468C2.97658 11.4668 3.41261 13.1601 4.76159 13.9201C5.91981 14.6001 6.3286 16.1068 5.64729 17.2535C5.41565 17.6135 5.17038 17.9201 4.78885 18.1068C4.32556 18.3601 3.91678 18.7601 3.69876 19.1601C3.19459 19.9868 3.22185 21.0268 3.72601 21.8935L4.66621 23.4935C5.17038 24.3468 6.11058 24.8801 7.09166 24.8801C7.55494 24.8801 8.09999 24.7468 8.53602 24.4801C8.87668 24.2535 9.28546 24.1735 9.73512 24.1735C11.0841 24.1735 12.2151 25.2801 12.2423 26.6001C12.2423 28.1335 13.4959 29.3335 15.0766 29.3335H16.9297C18.4967 29.3335 19.7503 28.1335 19.7503 26.6001C19.7912 25.2801 20.9221 24.1735 22.2711 24.1735C22.7072 24.1735 23.1159 24.2535 23.4702 24.4801C23.9063 24.7468 24.4377 24.8801 24.9146 24.8801C25.882 24.8801 26.8222 24.3468 27.3264 23.4935L28.2802 21.8935C28.7708 21.0001 28.8117 19.9868 28.3075 19.1601Z" fill="#B9AAFF"/>
</svg>
