<svg width="32" height="32" viewBox="0 0 32 32" fill="none" xmlns="http://www.w3.org/2000/svg">
<path opacity="0.4" d="M2.66602 8.59596C2.66602 5.32796 5.373 2.66663 8.69873 2.66663H15.3135C18.6325 2.66663 21.3327 5.31996 21.3327 8.58263V23.404C21.3327 26.6733 18.6257 29.3333 15.2986 29.3333H8.68651C5.36622 29.3333 2.66602 26.68 2.66602 23.4173V22.164V8.59596Z" fill="#B9AAFF"/>
<path d="M29.0376 15.2731L25.2433 11.3944C24.8511 10.9944 24.22 10.9944 23.8291 11.3971C23.4396 11.7997 23.4409 12.4491 23.8317 12.8491L25.9107 14.9731H23.9174H12.7304C12.1785 14.9731 11.7305 15.4331 11.7305 15.9997C11.7305 16.5677 12.1785 17.0264 12.7304 17.0264H25.9107L23.8317 19.1504C23.4409 19.5504 23.4396 20.1997 23.8291 20.6024C24.0252 20.8037 24.281 20.9051 24.5381 20.9051C24.7927 20.9051 25.0485 20.8037 25.2433 20.6051L29.0376 16.7277C29.2259 16.5344 29.3324 16.2731 29.3324 15.9997C29.3324 15.7277 29.2259 15.4664 29.0376 15.2731" fill="#7763EA"/>
</svg>
